<svg width="1200" height="630" viewBox="0 0 1200 630" fill="none" xmlns="http://www.w3.org/2000/svg">
  <rect width="1200" height="630" rx="48" fill="url(#paint0_radial_1_1)"/>
  <g opacity="0.4">
    <path d="M1168 315C1168 460.385 1049.39 579 904 579C758.615 579 640 460.385 640 315C640 169.615 758.615 51 904 51C1049.39 51 1168 169.615 1168 315Z" stroke="#7DD3FC" stroke-width="2" />
    <path d="M560 315C560 460.385 441.385 579 296 579C150.615 579 32 460.385 32 315C32 169.615 150.615 51 296 51C441.385 51 560 169.615 560 315Z" stroke="#1F6FEB" stroke-width="2" />
  </g>
  <text x="120" y="258" fill="#F8FAFC" font-family="'Space Grotesk', 'sans-serif'" font-size="120" font-weight="600" letter-spacing="0.12em">VERCEDO</text>
  <text x="120" y="360" fill="#7DD3FC" font-family="'Archivo', 'sans-serif'" font-size="36" letter-spacing="0.4em">AUTOMATE THE IMPOSSIBLE</text>
  <rect x="120" y="400" width="520" height="4" rx="2" fill="#1F6FEB"/>
  <text x="120" y="470" fill="#E2E8F0" font-family="'Space Grotesk', 'sans-serif'" font-size="32" letter-spacing="0.1em">AI Automation Platform for Visionary Enterprises</text>
  <defs>
    <radialGradient id="paint0_radial_1_1" cx="0" cy="0" r="1" gradientUnits="userSpaceOnUse" gradientTransform="translate(600 315) rotate(90) scale(540 860)">
      <stop offset="0" stop-color="#1F6FEB" stop-opacity="0.35"/>
      <stop offset="0.52" stop-color="#020617"/>
      <stop offset="1" stop-color="#020617"/>
    </radialGradient>
  </defs>
</svg>
